<svg xmlns="http://www.w3.org/2000/svg" width="1200" height="600" viewBox="0 0 1200 600" role="img" aria-labelledby="title desc">
<title id="title">AffinityQA — Follow the profile. Prove the recovery.</title><desc id="desc">Original brand illustration. A profile follows a verified route through detect, diagnose, repair and verify. This is a diagram, not a product screenshot.</desc>
<defs><pattern id="grid" width="40" height="40" patternUnits="userSpaceOnUse"><path d="M40 0H0V40" fill="none" stroke="#f6f2e8" stroke-opacity=".035"/></pattern></defs>
<rect width="1200" height="600" rx="24" fill="#151c29"/><rect width="1200" height="600" rx="24" fill="url(#grid)"/>
<g transform="translate(64 56)"><rect width="48" height="48" rx="13" fill="#ddb8ac"/><path d="M12 34 24 12 36 34M18 26H30" fill="none" stroke="#151c29" stroke-width="3.6" stroke-linecap="round" stroke-linejoin="round"/><text x="66" y="34" fill="#f6f2e8" font-family="Arial,sans-serif" font-size="30" font-weight="700" letter-spacing="-1">AffinityQA</text></g>
<text x="66" y="167" fill="#b9c49b" font-family="Arial,sans-serif" font-size="13" letter-spacing="3">PROFILE INTEGRITY FOR AI AGENTS</text>
<g fill="#f6f2e8" font-family="Arial,sans-serif" font-size="68" letter-spacing="-3"><text x="60" y="257">Follow the profile.</text><text x="60" y="335">Prove the recovery.</text></g>
<text x="65" y="390" fill="#c2c6cb" font-family="Arial,sans-serif" font-size="20">Trace the mismatch. Apply a supported repair.</text><text x="65" y="420" fill="#c2c6cb" font-family="Arial,sans-serif" font-size="20">Verify the recovered behavior.</text>
<g transform="translate(831 166)"><rect width="294" height="280" rx="22" fill="#f6f2e8"/><text x="24" y="39" fill="#5c664a" font-family="Arial,sans-serif" font-size="12" letter-spacing="2">THE PROFILE THREAD</text><path d="M42 84V235" stroke="#a4af89" stroke-width="2"/><g font-family="Arial,sans-serif" font-size="19" fill="#242d23"><text x="76" y="92">Detect</text><text x="76" y="143">Diagnose</text><text x="76" y="194">Repair</text><text x="76" y="245">Verify</text></g><g stroke="#f6f2e8" stroke-width="4"><circle cx="42" cy="85" r="9" fill="#ddb8ac"/><circle cx="42" cy="136" r="9" fill="#ddb8ac"/><circle cx="42" cy="187" r="9" fill="#778559"/><circle cx="42" cy="238" r="9" fill="#778559"/></g></g>
<path d="M64 497H1136" stroke="#f6f2e8" stroke-opacity=".18"/><text x="65" y="541" fill="#b9c49b" font-family="Arial,sans-serif" font-size="14" letter-spacing="1">THREE FAULT CLASSES · ONE AUDITABLE RECOVERY PATH</text><text x="1135" y="541" text-anchor="end" fill="#c2c6cb" font-family="Arial,sans-serif" font-size="12">ORIGINAL BRAND DIAGRAM</text>
</svg>
